<svg xmlns="http://www.w3.org/2000/svg" viewBox="0 0 960 640" role="img" aria-labelledby="title desc">
  <title id="title">Bright Quest academy hub</title>
  <desc id="desc">A polished learning campus with mountain maths, grammar garden, reasoning lab, global arena, and arcade lights connected by a route.</desc>
  <defs>
    <linearGradient id="sky" x1="0" x2="960" y1="0" y2="640" gradientUnits="userSpaceOnUse">
      <stop stop-color="#EAF9FF"/>
      <stop offset=".54" stop-color="#B9EEFF"/>
      <stop offset="1" stop-color="#7CDBEF"/>
    </linearGradient>
    <linearGradient id="grass" x1="70" x2="872" y1="220" y2="610" gradientUnits="userSpaceOnUse">
      <stop stop-color="#B8F06E"/>
      <stop offset=".5" stop-color="#47D66D"/>
      <stop offset="1" stop-color="#13A78A"/>
    </linearGradient>
    <linearGradient id="route" x1="143" x2="819" y1="497" y2="195" gradientUnits="userSpaceOnUse">
      <stop stop-color="#FFFFFF"/>
      <stop offset=".5" stop-color="#FFF47B"/>
      <stop offset="1" stop-color="#FFFFFF"/>
    </linearGradient>
    <filter id="shadow" x="-20%" y="-20%" width="140%" height="145%">
      <feDropShadow dx="0" dy="18" stdDeviation="14" flood-color="#0D286C" flood-opacity=".22"/>
    </filter>
  </defs>
  <rect width="960" height="640" rx="42" fill="url(#sky)"/>
  <circle cx="810" cy="94" r="54" fill="#FFD23C"/>
  <path d="M0 442c99-94 201-136 306-126 99 9 159 66 263 54 106-12 174-91 283-80 46 5 82 20 108 45v305H0z" fill="url(#grass)"/>
  <path d="M71 548c118-84 216-119 293-105 71 13 108 66 181 53 82-15 126-91 209-98 48-4 91 14 132 55" fill="none" stroke="#0C6D9B" stroke-width="28" stroke-linecap="round" opacity=".16"/>
  <path d="M92 532c121-74 219-101 294-82 68 17 104 67 178 52 82-17 127-94 209-98 48-2 91 17 129 58" fill="none" stroke="url(#route)" stroke-width="12" stroke-linecap="round" stroke-dasharray="1 28"/>
  <g filter="url(#shadow)">
    <path d="M95 382l74-134 45 74 56-111 95 171z" fill="#5744C9"/>
    <path d="M169 248l45 74 56-111 21 38-53 39-31 57-38-39-33 76H95z" fill="#FFFFFF" opacity=".82"/>
    <rect x="126" y="374" width="198" height="86" rx="22" fill="#FFFFFF"/>
    <path d="M164 420h122M164 397h74" stroke="#5744C9" stroke-width="14" stroke-linecap="round"/>
  </g>
  <g filter="url(#shadow)">
    <rect x="402" y="210" width="188" height="154" rx="28" fill="#FFFFFF"/>
    <path d="M431 326h130M431 292h111M431 258h78" stroke="#1EAD61" stroke-width="13" stroke-linecap="round"/>
    <path d="M588 234c30 14 48 38 52 72-25-12-49-12-72 2 14-26 20-51 20-74z" fill="#21C46B"/>
    <path d="M421 384c57-24 116-24 176 0" fill="none" stroke="#116E45" stroke-width="16" stroke-linecap="round"/>
  </g>
  <g filter="url(#shadow)">
    <rect x="650" y="150" width="180" height="140" rx="30" fill="#FFFFFF"/>
    <path d="M699 256c27-58 67-58 95 0" fill="none" stroke="#22C7D9" stroke-width="18" stroke-linecap="round"/>
    <path d="M705 202h70" stroke="#15217A" stroke-width="15" stroke-linecap="round"/>
    <circle cx="796" cy="207" r="19" fill="#FFD23C"/>
  </g>
  <g filter="url(#shadow)">
    <circle cx="693" cy="467" r="70" fill="#FFFFFF"/>
    <circle cx="693" cy="467" r="46" fill="#1D8DFF"/>
    <path d="M655 470c35-21 72-21 110 0M693 421c-15 26-15 59 0 92M693 421c15 26 15 59 0 92" fill="none" stroke="#9FF06D" stroke-width="8" stroke-linecap="round"/>
  </g>
  <g filter="url(#shadow)">
    <rect x="760" y="388" width="120" height="120" rx="30" fill="#17217C"/>
    <path d="M802 420l14 38 40 1-32 23 12 38-34-23-33 23 12-38-32-23 40-1z" fill="#FFD23C"/>
    <circle cx="780" cy="532" r="12" fill="#F25596"/>
    <circle cx="821" cy="536" r="12" fill="#22C7D9"/>
    <circle cx="862" cy="532" r="12" fill="#9FF06D"/>
  </g>
  <g fill="#FFFFFF" opacity=".86">
    <circle cx="145" cy="535" r="10"/>
    <circle cx="397" cy="454" r="10"/>
    <circle cx="604" cy="501" r="10"/>
    <circle cx="752" cy="405" r="10"/>
  </g>
</svg>
