<svg xmlns="http://www.w3.org/2000/svg" viewBox="0 0 320 180" role="img" aria-label="US challenge card">
  <rect width="320" height="180" rx="24" fill="#e7f6ff"/>
  <path d="M0 128c52-26 110-34 184-4 58 24 96 26 136 8v48H0z" fill="#58ca78"/>
  <rect x="50" y="50" width="132" height="78" rx="15" fill="#fff"/>
  <path d="M50 58h132M50 74h132M50 90h132M50 106h132M50 122h132" stroke="#b22234" stroke-width="9"/>
  <rect x="50" y="50" width="58" height="42" rx="10" fill="#244ca2"/>
  <g fill="#fff">
    <circle cx="64" cy="62" r="2.2"/><circle cx="78" cy="62" r="2.2"/><circle cx="92" cy="62" r="2.2"/>
    <circle cx="70" cy="75" r="2.2"/><circle cx="84" cy="75" r="2.2"/><circle cx="98" cy="75" r="2.2"/>
  </g>
  <path d="M230 54h42v74h-42z" fill="#10205f" opacity=".12"/>
  <path d="M220 132h74" stroke="#10205f" stroke-opacity=".24" stroke-width="12" stroke-linecap="round"/>
</svg>
