<svg xmlns="http://www.w3.org/2000/svg" viewBox="0 0 720 160" role="img" aria-label="Core test path artwork">
  <defs>
    <linearGradient id="bg" x1="0" x2="1" y1="0" y2="1">
      <stop stop-color="#e8f8ff"/>
      <stop offset=".48" stop-color="#f2f0ff"/>
      <stop offset="1" stop-color="#fff6d9"/>
    </linearGradient>
    <linearGradient id="path" x1="0" x2="1">
      <stop stop-color="#23c77d"/>
      <stop offset=".5" stop-color="#2cb8ff"/>
      <stop offset="1" stop-color="#6b4ee8"/>
    </linearGradient>
  </defs>
  <rect width="720" height="160" rx="26" fill="url(#bg)"/>
  <path d="M46 100c92-64 172-70 270-18 108 58 204 52 358-34" fill="none" stroke="url(#path)" stroke-width="16" stroke-linecap="round" opacity=".82"/>
  <path d="M52 98c92-60 170-64 264-14 106 56 204 48 352-34" fill="none" stroke="#fff" stroke-width="4" stroke-linecap="round" stroke-dasharray="1 20" opacity=".75"/>
  <circle cx="102" cy="72" r="28" fill="#ffd84e"/>
  <path d="M522 30l18 36 40 6-30 28 8 40-36-20-36 20 8-40-30-28 40-6z" fill="#ffd84e" opacity=".78"/>
  <rect x="270" y="32" width="118" height="72" rx="20" fill="#fff" opacity=".72"/>
  <path d="M294 62h66M294 84h44" stroke="#8aa4dc" stroke-width="10" stroke-linecap="round"/>
</svg>
