<svg xmlns="http://www.w3.org/2000/svg" viewBox="0 0 900 1280" role="img" aria-label="Bright Quest world challenge arena backdrop">
  <defs>
    <linearGradient id="arena" x1="0" x2="1" y1="0" y2="1">
      <stop offset="0" stop-color="#071c58"/>
      <stop offset=".48" stop-color="#0d7bd6"/>
      <stop offset="1" stop-color="#86ecff"/>
    </linearGradient>
    <linearGradient id="field" x1="0" x2="1" y1="0" y2="1">
      <stop offset="0" stop-color="#66e59c"/>
      <stop offset="1" stop-color="#23b879"/>
    </linearGradient>
    <filter id="glow" x="-40%" y="-40%" width="180%" height="180%">
      <feGaussianBlur stdDeviation="18" result="blur"/>
      <feMerge><feMergeNode in="blur"/><feMergeNode in="SourceGraphic"/></feMerge>
    </filter>
    <filter id="shadow" x="-20%" y="-20%" width="140%" height="140%">
      <feDropShadow dx="0" dy="20" stdDeviation="24" flood-color="#061647" flood-opacity=".24"/>
    </filter>
  </defs>
  <rect width="900" height="1280" rx="52" fill="url(#arena)"/>
  <path d="M0 514 C160 410 308 472 450 404 C594 334 730 380 900 302 L900 1280 L0 1280Z" fill="#fff" opacity=".08"/>
  <ellipse cx="454" cy="452" rx="220" ry="220" fill="#22c0dc" opacity=".72" filter="url(#glow)"/>
  <circle cx="454" cy="452" r="176" fill="#27c0df"/>
  <path d="M454 276 C516 340 548 400 548 452 C548 504 516 564 454 628 C392 564 360 504 360 452 C360 400 392 340 454 276Z" fill="#41dd9b" opacity=".86"/>
  <path d="M286 452 H622 M454 276 V628" stroke="#d9fbff" stroke-width="10" stroke-linecap="round" opacity=".74"/>
  <ellipse cx="454" cy="452" rx="176" ry="70" fill="none" stroke="#d9fbff" stroke-width="9" opacity=".62"/>
  <path d="M72 735 C184 638 312 688 446 632 C594 570 716 618 900 540 L900 1280 H0 V790Z" fill="url(#field)"/>
  <path d="M0 800 C180 748 330 798 492 742 C638 692 758 710 900 760" fill="none" stroke="#e5fff3" stroke-width="7" opacity=".45"/>
  <g filter="url(#shadow)">
    <rect x="122" y="808" width="232" height="160" rx="30" fill="#fff" opacity=".9"/>
    <rect x="384" y="764" width="160" height="204" rx="32" fill="#fff" opacity=".86"/>
    <rect x="574" y="808" width="232" height="160" rx="30" fill="#fff" opacity=".9"/>
  </g>
  <g>
    <path d="M210 840 h88 v58 h-88z" fill="#fff"/>
    <path d="M210 840 h88 v12 h-88zM210 862 h88 v12 h-88zM210 884 h88 v14 h-88z" fill="#dc3247"/>
    <path d="M210 840 h42 v32 h-42z" fill="#283b95"/>
    <path d="M616 840 h104 v58 h-104z" fill="#fff"/>
    <path d="M616 840 h104 v12 h-104zM616 864 h104 v12 h-104zM616 888 h104 v10 h-104z" fill="#c82343"/>
    <rect x="616" y="840" width="44" height="34" fill="#284999"/>
  </g>
  <path d="M436 806 H494 V920 H436Z" fill="#f7a722"/>
  <path d="M406 790 C406 746 436 716 466 716 C496 716 526 746 526 790 C526 834 498 860 466 860 C434 860 406 834 406 790Z" fill="#ffd454"/>
  <rect x="406" y="910" width="120" height="34" rx="14" fill="#11235d"/>
  <path d="M466 222 L500 330 L612 330 L522 396 L556 504 L466 438 L376 504 L410 396 L320 330 L432 330Z" fill="#ffd84d" opacity=".26"/>
  <path d="M102 164 C232 86 394 120 530 78 C682 30 790 68 860 116" fill="none" stroke="#bcecff" stroke-width="3" opacity=".45"/>
  <path d="M82 1112 C220 1042 362 1068 514 1018 C668 966 778 1010 864 1080" fill="none" stroke="#fff" stroke-width="3" opacity=".42"/>
</svg>
