<svg xmlns="http://www.w3.org/2000/svg" viewBox="0 0 900 1280" role="img" aria-label="Bright Quest training academy backdrop">
  <defs>
    <linearGradient id="sky" x1="0" x2="1" y1="0" y2="1">
      <stop offset="0" stop-color="#e9fbff"/>
      <stop offset=".5" stop-color="#bff6eb"/>
      <stop offset="1" stop-color="#eee8ff"/>
    </linearGradient>
    <linearGradient id="glass" x1="0" x2="1" y1="0" y2="1">
      <stop offset="0" stop-color="#ffffff" stop-opacity=".92"/>
      <stop offset="1" stop-color="#d9f7ff" stop-opacity=".58"/>
    </linearGradient>
    <linearGradient id="violet" x1="0" x2="1" y1="0" y2="1">
      <stop offset="0" stop-color="#1c3bd8"/>
      <stop offset="1" stop-color="#714ff0"/>
    </linearGradient>
    <filter id="shadow" x="-20%" y="-20%" width="140%" height="140%">
      <feDropShadow dx="0" dy="22" stdDeviation="22" flood-color="#123970" flood-opacity=".18"/>
    </filter>
  </defs>
  <rect width="900" height="1280" rx="52" fill="url(#sky)"/>
  <circle cx="756" cy="128" r="64" fill="#ffd84d"/>
  <path d="M0 442 C155 340 240 410 382 322 C546 222 702 318 900 210 L900 1280 L0 1280Z" fill="#5cd99b" opacity=".24"/>
  <path d="M0 674 C180 590 320 638 484 568 C638 502 768 558 900 488 L900 1280 L0 1280Z" fill="#66cfe4" opacity=".24"/>
  <rect x="94" y="236" width="720" height="436" rx="42" fill="url(#glass)" filter="url(#shadow)"/>
  <path d="M150 590 H758" stroke="#c8d9ee" stroke-width="12" stroke-linecap="round"/>
  <rect x="188" y="322" width="158" height="214" rx="22" fill="#fff" stroke="#bcd8e8" stroke-width="8"/>
  <path d="M218 390 H316 M218 440 H304 M218 490 H286" stroke="#8fa7d1" stroke-width="14" stroke-linecap="round"/>
  <rect x="392" y="318" width="132" height="218" rx="24" fill="#101f61"/>
  <path d="M418 474 C452 408 496 380 540 334" fill="none" stroke="#ffffff" stroke-width="10" stroke-linecap="round"/>
  <path d="M532 334 L512 398 L568 378Z" fill="#ffd84d"/>
  <circle cx="462" cy="440" r="34" fill="#27c47b"/>
  <rect x="568" y="322" width="142" height="214" rx="24" fill="#fff" stroke="#bcd8e8" stroke-width="8"/>
  <path d="M598 378 H682 M598 428 H666 M598 478 H684" stroke="#8fa7d1" stroke-width="14" stroke-linecap="round"/>
  <rect x="132" y="750" width="636" height="300" rx="46" fill="#ffffff" opacity=".66" filter="url(#shadow)"/>
  <path d="M208 940 C298 784 450 802 532 918 C596 1008 696 982 752 890" fill="none" stroke="url(#violet)" stroke-width="22" stroke-linecap="round" opacity=".82"/>
  <circle cx="222" cy="918" r="54" fill="#44c3e4"/>
  <path d="M204 918 H240 M222 900 V936" stroke="#fff" stroke-width="16" stroke-linecap="round"/>
  <circle cx="452" cy="866" r="56" fill="#34c875"/>
  <text x="452" y="884" text-anchor="middle" font-family="Arial, sans-serif" font-size="52" font-weight="800" fill="#fff">ABC</text>
  <circle cx="678" cy="918" r="56" fill="#ffd84d"/>
  <path d="M678 864 L696 900 H734 L704 924 L716 962 L678 938 L640 962 L652 924 L622 900 H660Z" fill="#ef7d2d"/>
  <path d="M96 158 C232 88 398 132 516 82 C632 34 744 50 846 90" fill="none" stroke="#fff" stroke-width="3" opacity=".7"/>
  <path d="M112 1114 C250 1068 392 1086 526 1034 C662 982 762 1006 864 1052" fill="none" stroke="#fff" stroke-width="3" opacity=".55"/>
</svg>
