<svg xmlns="http://www.w3.org/2000/svg" viewBox="0 0 720 980" role="img" aria-label="Bright Quest adventure learning map">
  <defs>
    <linearGradient id="skyWater" x1="0" x2="0" y1="0" y2="1">
      <stop offset="0" stop-color="#62d6ff"/>
      <stop offset=".48" stop-color="#24b6df"/>
      <stop offset="1" stop-color="#147fae"/>
    </linearGradient>
    <linearGradient id="deepWater" x1="0" x2="1" y1="0" y2="1">
      <stop stop-color="#1178a8" stop-opacity=".18"/>
      <stop offset="1" stop-color="#034c79" stop-opacity=".46"/>
    </linearGradient>
    <linearGradient id="grass" x1="0" x2="1" y1="0" y2="1">
      <stop stop-color="#9cf37e"/>
      <stop offset=".46" stop-color="#42ce70"/>
      <stop offset="1" stop-color="#168f67"/>
    </linearGradient>
    <linearGradient id="hill" x1="0" x2="1" y1="0" y2="1">
      <stop stop-color="#d7f77d"/>
      <stop offset="1" stop-color="#60c96b"/>
    </linearGradient>
    <linearGradient id="path" x1="0" x2="1">
      <stop stop-color="#fff3b7"/>
      <stop offset="1" stop-color="#ffd86c"/>
    </linearGradient>
    <filter id="softShadow" x="-20%" y="-20%" width="140%" height="150%">
      <feDropShadow dx="0" dy="18" stdDeviation="18" flood-color="#033e66" flood-opacity=".24"/>
    </filter>
    <filter id="smallShadow" x="-25%" y="-25%" width="150%" height="150%">
      <feDropShadow dx="0" dy="8" stdDeviation="8" flood-color="#07375f" flood-opacity=".22"/>
    </filter>
  </defs>

  <rect width="720" height="980" rx="38" fill="url(#skyWater)"/>
  <path d="M0 132c106-38 228-34 342 8 148 54 250 32 378-34v874H0z" fill="url(#deepWater)" opacity=".58"/>
  <path d="M40 198c104-42 214-38 330 12 108 46 204 42 310-18" fill="none" stroke="#baf7ff" stroke-width="6" stroke-opacity=".2"/>
  <path d="M34 742c110-54 230-44 350 22 92 50 186 54 292 10" fill="none" stroke="#ffffff" stroke-width="6" stroke-opacity=".16"/>

  <g filter="url(#softShadow)">
    <path d="M90 128c86-62 188-66 282-18 44 22 86 24 136 10 78-20 144 26 154 100 10 78-56 146-160 158-64 8-108-12-156-36-46-22-90-24-150-8-86 24-152-16-172-86-14-50 8-90 66-120z" fill="url(#grass)"/>
    <path d="M134 166c44-44 104-48 146-10l-40 52-28-24-44 56-42-14z" fill="#eaf8ff" opacity=".95"/>
    <path d="M406 164c48-16 100 16 116 66 14 44-12 86-60 102-58 18-118-20-128-74-8-42 20-76 72-94z" fill="url(#hill)" opacity=".86"/>
    <circle cx="278" cy="264" r="46" fill="#c7f777" opacity=".72"/>
    <circle cx="502" cy="244" r="26" fill="#2bbd68" opacity=".86"/>
  </g>

  <g filter="url(#softShadow)">
    <path d="M78 430c66-70 154-98 250-76 66 16 106 48 154 88 38 32 78 42 126 34 44-8 76 18 78 60 4 54-50 100-134 126-84 26-164 16-238-28-52-30-94-34-154-14-80 26-140-10-160-74-14-42 12-84 78-116z" fill="url(#grass)"/>
    <path d="M232 410h154c28 0 48 20 48 48v116H270c-34 0-58-24-58-58v-86c0-12 8-20 20-20z" fill="#f9ffef" opacity=".95"/>
    <path d="M274 454h98M274 496h118M274 538h74" fill="none" stroke="#8da4d5" stroke-width="14" stroke-linecap="round"/>
    <circle cx="170" cy="560" r="54" fill="#c6f876" opacity=".72"/>
    <circle cx="562" cy="536" r="46" fill="#79dd77" opacity=".8"/>
  </g>

  <g filter="url(#softShadow)">
    <path d="M172 744c72-72 176-84 258-34 50 30 96 34 152 16 56-18 104 8 118 60 16 62-34 126-126 160-88 32-196 18-270-36-40-30-84-36-138-18-62 20-114-4-130-54-14-42 30-78 136-94z" fill="url(#grass)"/>
    <path d="M412 782h110c18 0 32 14 32 32v82H374v-76c0-22 18-38 38-38z" fill="#dfe9ff"/>
    <path d="M384 896h190" stroke="#f5fbff" stroke-width="18" stroke-linecap="round"/>
    <path d="M470 750l34 58h-68z" fill="#fff6b6"/>
    <circle cx="272" cy="818" r="58" fill="#c7f777" opacity=".86"/>
  </g>

  <path d="M150 350C238 386 324 390 420 360c76-24 136-10 184 36" fill="none" stroke="url(#path)" stroke-width="8" stroke-linecap="round" opacity=".78"/>
  <path d="M162 670c82-20 162-10 238 34 48 28 96 40 156 32" fill="none" stroke="url(#path)" stroke-width="8" stroke-linecap="round" opacity=".76"/>
  <path d="M150 350C238 386 324 390 420 360c76-24 136-10 184 36M162 670c82-20 162-10 238 34 48 28 96 40 156 32" fill="none" stroke="#fff" stroke-width="2" stroke-linecap="round" stroke-dasharray="1 16" opacity=".62"/>

  <g filter="url(#smallShadow)" opacity=".98">
    <rect x="126" y="374" width="74" height="44" rx="16" fill="#fff6bf"/>
    <path d="M138 388h50M138 404h34" stroke="#61a5d8" stroke-width="6" stroke-linecap="round"/>
    <rect x="520" y="654" width="86" height="44" rx="18" fill="#fff6bf"/>
    <path d="M538 674h46" stroke="#d79730" stroke-width="7" stroke-linecap="round"/>
    <circle cx="612" cy="148" r="32" fill="#ffcf49"/>
    <path d="M604 112l42 20-24 12-10 26-18-44z" fill="#fff" opacity=".95"/>
  </g>

  <g opacity=".5">
    <circle cx="70" cy="214" r="8" fill="#fff"/>
    <circle cx="650" cy="414" r="10" fill="#fff"/>
    <circle cx="82" cy="704" r="7" fill="#fff"/>
    <circle cx="632" cy="834" r="8" fill="#fff"/>
  </g>
</svg>
