<svg xmlns="http://www.w3.org/2000/svg" viewBox="0 0 320 220" role="img" aria-label="Grammar notebook and sentence cards">
  <defs>
    <linearGradient id="bg" x1="0" x2="1" y1="0" y2="1">
      <stop stop-color="#fff7d6"/>
      <stop offset="1" stop-color="#bff2ff"/>
    </linearGradient>
    <linearGradient id="book" x1="0" x2="1">
      <stop stop-color="#0f9f7c"/>
      <stop offset="1" stop-color="#5d56e8"/>
    </linearGradient>
    <filter id="shadow" x="-20%" y="-20%" width="140%" height="150%">
      <feDropShadow dx="0" dy="12" stdDeviation="10" flood-color="#10205f" flood-opacity=".22"/>
    </filter>
  </defs>
  <rect width="320" height="220" rx="28" fill="url(#bg)"/>
  <circle cx="270" cy="46" r="34" fill="#ffd75a" opacity=".9"/>
  <path d="M26 166c48-32 82-34 130-12s82 18 134-20v86H26z" fill="#37c77a" opacity=".22"/>
  <g filter="url(#shadow)">
    <path d="M68 48h82c22 0 34 12 34 32v102H98c-18 0-30-12-30-30z" fill="#fff"/>
    <path d="M184 80c0-20 12-32 34-32h34v134h-68z" fill="#f7fbff"/>
    <path d="M68 48h82c22 0 34 12 34 32v102H98c-18 0-30-12-30-30z" fill="none" stroke="#12205a" stroke-opacity=".13" stroke-width="5"/>
    <path d="M184 80c0-20 12-32 34-32h34v134h-68z" fill="none" stroke="#12205a" stroke-opacity=".13" stroke-width="5"/>
    <rect x="86" y="70" width="78" height="18" rx="9" fill="url(#book)"/>
    <rect x="86" y="102" width="64" height="10" rx="5" fill="#a4b6d9"/>
    <rect x="86" y="124" width="74" height="10" rx="5" fill="#a4b6d9"/>
    <rect x="204" y="70" width="30" height="30" rx="9" fill="#ffd75a"/>
    <path d="M211 91V78h16M211 85h13" fill="none" stroke="#12205a" stroke-width="5" stroke-linecap="round" stroke-linejoin="round"/>
    <rect x="204" y="120" width="34" height="10" rx="5" fill="#a4b6d9"/>
    <rect x="204" y="144" width="24" height="10" rx="5" fill="#a4b6d9"/>
  </g>
  <g filter="url(#shadow)">
    <rect x="126" y="18" width="108" height="46" rx="16" fill="#10205f"/>
    <text x="180" y="48" text-anchor="middle" font-family="Arial, sans-serif" font-size="24" font-weight="900" fill="#fff">ABC</text>
  </g>
</svg>
