<svg xmlns="http://www.w3.org/2000/svg" viewBox="0 0 640 440" role="img" aria-label="Maths mountain adventure scene">
  <defs>
    <linearGradient id="sky" x1="0" x2="0" y1="0" y2="1">
      <stop stop-color="#8be8ff"/>
      <stop offset=".52" stop-color="#d7f3ff"/>
      <stop offset="1" stop-color="#fff3c8"/>
    </linearGradient>
    <linearGradient id="mountainA" x1="120" x2="440" y1="88" y2="368" gradientUnits="userSpaceOnUse">
      <stop stop-color="#7c62ff"/>
      <stop offset=".58" stop-color="#3f44d7"/>
      <stop offset="1" stop-color="#17205f"/>
    </linearGradient>
    <linearGradient id="mountainB" x1="282" x2="610" y1="46" y2="374" gradientUnits="userSpaceOnUse">
      <stop stop-color="#5ad7ff"/>
      <stop offset=".48" stop-color="#3578f5"/>
      <stop offset="1" stop-color="#211b89"/>
    </linearGradient>
    <linearGradient id="badge" x1="0" x2="1" y1="0" y2="1">
      <stop stop-color="#fff16d"/>
      <stop offset="1" stop-color="#ff9f2f"/>
    </linearGradient>
    <linearGradient id="textFade" x1="0" x2="0" y1="0" y2="1">
      <stop stop-color="#071746" stop-opacity="0"/>
      <stop offset=".48" stop-color="#071746" stop-opacity=".52"/>
      <stop offset="1" stop-color="#071746" stop-opacity=".78"/>
    </linearGradient>
    <filter id="softShadow" x="-20%" y="-20%" width="140%" height="150%">
      <feDropShadow dx="0" dy="18" stdDeviation="16" flood-color="#10205f" flood-opacity=".24"/>
    </filter>
  </defs>
  <rect width="640" height="440" rx="44" fill="url(#sky)"/>
  <circle cx="534" cy="82" r="48" fill="#ffd95b"/>
  <circle cx="110" cy="70" r="78" fill="#ffffff" opacity=".28"/>
  <path d="M0 314c70-42 133-42 190-10s103 48 186 16 150-38 264-6v126H0z" fill="#24c878"/>
  <path d="M0 342c92-30 170-18 236 28s134 36 210 8 132-24 194 10v52H0z" fill="#159c75" opacity=".6"/>
  <g filter="url(#softShadow)">
    <path d="M34 352L190 126l74 98 84-154 176 282z" fill="url(#mountainA)"/>
    <path d="M190 126l42 56-52 22-54 78-34-56zM348 70l64 104-75-42-48 84-34-58z" fill="#f7fbff"/>
    <path d="M256 356L412 98l180 258z" fill="url(#mountainB)" opacity=".92"/>
    <path d="M412 98l54 88-62-35-46 80-36-62z" fill="#fff"/>
    <path d="M74 358h486" stroke="#25ca6f" stroke-width="28" stroke-linecap="round"/>
  </g>
  <path d="M96 332c76-70 156-100 240-88 72 10 126-8 178-64" fill="none" stroke="#ffffff" stroke-width="9" stroke-linecap="round" stroke-dasharray="2 24" opacity=".9"/>
  <g filter="url(#softShadow)">
    <rect x="70" y="74" width="88" height="64" rx="20" fill="#0d185f" opacity=".82"/>
    <text x="114" y="116" text-anchor="middle" font-family="Arial, sans-serif" font-size="38" font-weight="900" fill="#ffffff">+</text>
    <rect x="464" y="156" width="96" height="68" rx="22" fill="#0d185f" opacity=".86"/>
    <text x="512" y="202" text-anchor="middle" font-family="Arial, sans-serif" font-size="38" font-weight="900" fill="#ffffff">x</text>
    <rect x="288" y="260" width="84" height="58" rx="20" fill="#0d185f" opacity=".84"/>
    <text x="330" y="300" text-anchor="middle" font-family="Arial, sans-serif" font-size="34" font-weight="900" fill="#ffffff">=</text>
    <path d="M540 38l14 35 38 2-30 23 9 37-31-21-32 21 10-37-30-23 38-2z" fill="url(#badge)"/>
  </g>
  <rect y="250" width="640" height="190" fill="url(#textFade)"/>
</svg>
