<svg xmlns="http://www.w3.org/2000/svg" viewBox="0 0 1280 420" role="img" aria-label="Bright Quest studio backdrop">
  <defs>
    <linearGradient id="sky" x1="0" x2="1" y1="0" y2="1">
      <stop stop-color="#071238"/>
      <stop offset=".54" stop-color="#12376d"/>
      <stop offset="1" stop-color="#4b3bb6"/>
    </linearGradient>
    <linearGradient id="path" x1="0" x2="1">
      <stop stop-color="#25d3f4"/>
      <stop offset=".5" stop-color="#ffd85a"/>
      <stop offset="1" stop-color="#ee5aa3"/>
    </linearGradient>
  </defs>
  <rect width="1280" height="420" rx="36" fill="url(#sky)"/>
  <path d="M0 318c180-86 330-82 488-22s302 64 510-38c116-58 190-54 282-16v178H0z" fill="#0e855f" opacity=".26"/>
  <path d="M72 290c150-104 314-128 520-48 216 84 376 74 566-78" fill="none" stroke="url(#path)" stroke-width="12" stroke-linecap="round" stroke-dasharray="1 32" opacity=".78"/>
  <g fill="#fff" opacity=".14">
    <circle cx="116" cy="70" r="36"/>
    <circle cx="196" cy="54" r="18"/>
    <circle cx="964" cy="88" r="28"/>
    <circle cx="1032" cy="62" r="16"/>
  </g>
  <g opacity=".32" fill="none" stroke="#fff" stroke-width="5">
    <rect x="92" y="126" width="156" height="102" rx="26"/>
    <rect x="1024" y="122" width="170" height="112" rx="28"/>
    <path d="M466 92h118M466 126h84M738 106h132M738 140h92"/>
  </g>
  <path d="M640 54l18 48 52 2-40 30 15 50-45-29-45 29 15-50-40-30 52-2z" fill="#ffd85a" opacity=".9"/>
</svg>
