<svg xmlns="http://www.w3.org/2000/svg" viewBox="0 0 720 440" role="img" aria-label="Bright Quest learning worlds collage">
  <defs>
    <linearGradient id="bg" x1="0" x2="1" y1="0" y2="1">
      <stop stop-color="#12205f"/>
      <stop offset=".52" stop-color="#1479b9"/>
      <stop offset="1" stop-color="#5d56e8"/>
    </linearGradient>
    <linearGradient id="gold" x1="0" x2="1" y1="0" y2="1">
      <stop stop-color="#fff178"/>
      <stop offset="1" stop-color="#ff9e1f"/>
    </linearGradient>
    <linearGradient id="cardA" x1="0" x2="1" y1="0" y2="1">
      <stop stop-color="#ebfff4"/>
      <stop offset="1" stop-color="#c6f1ff"/>
    </linearGradient>
    <linearGradient id="cardB" x1="0" x2="1" y1="0" y2="1">
      <stop stop-color="#fff6ce"/>
      <stop offset="1" stop-color="#ffd7e8"/>
    </linearGradient>
    <filter id="shadow" x="-20%" y="-20%" width="140%" height="150%">
      <feDropShadow dx="0" dy="18" stdDeviation="16" flood-color="#050b2e" flood-opacity=".34"/>
    </filter>
  </defs>
  <rect width="720" height="440" rx="42" fill="url(#bg)"/>
  <path d="M52 330c88-76 158-92 252-44s186 42 364-92v246H52z" fill="#39d184" opacity=".20"/>
  <path d="M72 238c116-74 218-74 332 4s180 64 250-22" fill="none" stroke="#fff" stroke-opacity=".34" stroke-width="10" stroke-linecap="round" stroke-dasharray="2 28"/>
  <circle cx="596" cy="76" r="42" fill="url(#gold)" opacity=".95"/>

  <g filter="url(#shadow)">
    <rect x="68" y="92" width="220" height="180" rx="34" fill="url(#cardA)" transform="rotate(-7 178 182)"/>
    <rect x="93" y="118" width="90" height="104" rx="18" fill="#fff"/>
    <path d="M138 118v104" stroke="#d8e6fb" stroke-width="6"/>
    <rect x="112" y="140" width="44" height="8" rx="4" fill="#7f96c7"/>
    <rect x="112" y="164" width="56" height="8" rx="4" fill="#7f96c7"/>
    <rect x="112" y="188" width="36" height="8" rx="4" fill="#7f96c7"/>
    <rect x="192" y="132" width="64" height="64" rx="18" fill="#10205f"/>
    <text x="224" y="174" text-anchor="middle" font-family="Arial, sans-serif" font-size="28" font-weight="900" fill="#fff">ABC</text>
  </g>

  <g filter="url(#shadow)">
    <rect x="260" y="52" width="238" height="198" rx="36" fill="#f7fbff" transform="rotate(4 379 151)"/>
    <path d="M302 206l70-102 38 55 34-48 46 95z" fill="#5d56e8"/>
    <path d="M372 104l18 26-24 12-20 28-16-20zM444 111l24 48-28-18-22 28-10-18z" fill="#fff"/>
    <path d="M316 212h160" stroke="#27c878" stroke-width="16" stroke-linecap="round"/>
    <text x="382" y="90" text-anchor="middle" font-family="Arial, sans-serif" font-size="20" font-weight="900" fill="#10205f">Maths Quest</text>
  </g>

  <g filter="url(#shadow)">
    <rect x="430" y="166" width="220" height="178" rx="34" fill="url(#cardB)" transform="rotate(-5 540 255)"/>
    <path d="M490 246c0-34 28-58 66-58s66 24 66 58v24H490z" fill="#ffbd45"/>
    <rect x="478" y="238" width="154" height="78" rx="20" fill="#c97025"/>
    <path d="M500 244h110M556 190v124" stroke="#ffe58a" stroke-width="10" stroke-linecap="round"/>
    <rect x="532" y="254" width="48" height="36" rx="12" fill="#10205f"/>
    <circle cx="556" cy="270" r="7" fill="#ffd75a"/>
  </g>

  <g filter="url(#shadow)">
    <rect x="178" y="248" width="210" height="126" rx="30" fill="#ffffff" opacity=".96"/>
    <rect x="208" y="282" width="58" height="58" rx="18" fill="#24b96f"/>
    <path d="M222 312l15 14 20-34" fill="none" stroke="#fff" stroke-width="8" stroke-linecap="round" stroke-linejoin="round"/>
    <rect x="286" y="286" width="66" height="10" rx="5" fill="#8fa6d2"/>
    <rect x="286" y="314" width="46" height="10" rx="5" fill="#8fa6d2"/>
    <rect x="286" y="342" width="78" height="10" rx="5" fill="#8fa6d2"/>
  </g>

  <path d="M612 324l32 16-18 8-8 18-18-34z" fill="#fff" stroke="#10205f" stroke-opacity=".12" stroke-width="4"/>
</svg>
