<svg xmlns="http://www.w3.org/2000/svg" viewBox="0 0 320 220" role="img" aria-label="Reading forest">
  <defs><linearGradient id="bg" x1="0" x2="1" y1="0" y2="1"><stop stop-color="#dafbe8"/><stop offset="1" stop-color="#bfeaff"/></linearGradient><filter id="shadow" x="-20%" y="-20%" width="140%" height="150%"><feDropShadow dx="0" dy="12" stdDeviation="10" flood-color="#10205f" flood-opacity=".2"/></filter></defs>
  <rect width="320" height="220" rx="28" fill="url(#bg)"/>
  <path d="M0 160c48-22 90-16 126 4s82 18 194-22v78H0z" fill="#27c878" opacity=".25"/>
  <g filter="url(#shadow)">
    <circle cx="72" cy="88" r="38" fill="#1faa64"/><circle cx="252" cy="86" r="42" fill="#1faa64"/><circle cx="214" cy="112" r="30" fill="#34c978"/>
    <path d="M72 112v58M252 116v56" stroke="#8a5a34" stroke-width="14" stroke-linecap="round"/>
    <path d="M98 72h62c22 0 34 12 34 32v72h-78c-22 0-34-12-34-32V88c0-9 7-16 16-16z" fill="#fff"/>
    <path d="M194 104c0-20 12-32 34-32h18v104h-52z" fill="#f7fbff"/>
    <rect x="112" y="96" width="58" height="10" rx="5" fill="#9eb4dc"/><rect x="112" y="122" width="70" height="10" rx="5" fill="#9eb4dc"/><rect x="112" y="148" width="46" height="10" rx="5" fill="#9eb4dc"/>
  </g>
</svg>
