<svg xmlns="http://www.w3.org/2000/svg" viewBox="0 0 640 440" role="img" aria-label="English reading forest scene">
  <defs>
    <linearGradient id="forestSky" x1="0" x2="1" y1="0" y2="1">
      <stop stop-color="#a8f2df"/>
      <stop offset=".55" stop-color="#c8f3ff"/>
      <stop offset="1" stop-color="#fff0cf"/>
    </linearGradient>
    <linearGradient id="leafA" x1="0" x2="1" y1="0" y2="1">
      <stop stop-color="#2bd57f"/>
      <stop offset="1" stop-color="#07985b"/>
    </linearGradient>
    <linearGradient id="book" x1="0" x2="1" y1="0" y2="1">
      <stop stop-color="#ffffff"/>
      <stop offset=".55" stop-color="#f4fbff"/>
      <stop offset="1" stop-color="#dff0ff"/>
    </linearGradient>
    <linearGradient id="textFade" x1="0" x2="0" y1="0" y2="1">
      <stop stop-color="#061738" stop-opacity="0"/>
      <stop offset=".48" stop-color="#061738" stop-opacity=".55"/>
      <stop offset="1" stop-color="#061738" stop-opacity=".8"/>
    </linearGradient>
    <filter id="shadow" x="-20%" y="-20%" width="140%" height="150%">
      <feDropShadow dx="0" dy="18" stdDeviation="16" flood-color="#082253" flood-opacity=".22"/>
    </filter>
  </defs>
  <rect width="640" height="440" rx="44" fill="url(#forestSky)"/>
  <circle cx="518" cy="78" r="48" fill="#ffd95b"/>
  <path d="M0 286c72-34 130-30 188 2 68 38 126 46 210 12 88-36 158-40 242-8v148H0z" fill="#21c46b" opacity=".44"/>
  <path d="M0 330c86-28 153-18 222 24 82 50 158 42 236 14 72-26 126-24 182 8v64H0z" fill="#0f9f72" opacity=".62"/>
  <g filter="url(#shadow)">
    <path d="M122 164v138M508 154v150" stroke="#8b5d35" stroke-width="26" stroke-linecap="round"/>
    <circle cx="122" cy="134" r="74" fill="url(#leafA)"/>
    <circle cx="74" cy="170" r="46" fill="#27c878"/>
    <circle cx="172" cy="184" r="54" fill="#0fa767"/>
    <circle cx="508" cy="126" r="82" fill="url(#leafA)"/>
    <circle cx="450" cy="174" r="52" fill="#2edb85"/>
    <circle cx="562" cy="184" r="56" fill="#0fa767"/>
  </g>
  <g filter="url(#shadow)">
    <path d="M170 144h126c44 0 70 28 70 76v132H230c-44 0-72-28-72-74V166c0-12 4-22 12-22z" fill="url(#book)"/>
    <path d="M366 220c0-48 26-76 70-76h34c8 0 14 8 14 18v190H366z" fill="#ffffff"/>
    <path d="M362 154v198" stroke="#b8c8df" stroke-width="8" stroke-linecap="round"/>
    <path d="M206 204h96M206 244h110M206 284h76M406 204h52M406 244h46M406 284h58" stroke="#8ea7d6" stroke-width="14" stroke-linecap="round"/>
    <path d="M228 104c36-22 70-22 102 0M390 104c34-20 66-20 96 0" fill="none" stroke="#ffffff" stroke-width="12" stroke-linecap="round" opacity=".92"/>
  </g>
  <g font-family="Arial, sans-serif" font-weight="900" fill="#0b1858" filter="url(#shadow)">
    <rect x="66" y="58" width="92" height="58" rx="20" fill="#ffffff" opacity=".92"/>
    <text x="112" y="97" text-anchor="middle" font-size="31">ABC</text>
    <rect x="480" y="252" width="80" height="56" rx="20" fill="#ffd95b"/>
    <text x="520" y="291" text-anchor="middle" font-size="31">?</text>
  </g>
  <path d="M104 352c76-52 154-66 234-42 78 24 134 5 196-52" fill="none" stroke="#ffffff" stroke-width="9" stroke-linecap="round" stroke-dasharray="2 24" opacity=".78"/>
  <rect y="250" width="640" height="190" fill="url(#textFade)"/>
</svg>
