<svg xmlns="http://www.w3.org/2000/svg" viewBox="0 0 720 240" role="img" aria-label="Cave River Quest reward card">
  <defs>
    <linearGradient id="bg" x1="0" x2="1" y1="0" y2="1">
      <stop stop-color="#102c7a"/>
      <stop offset=".55" stop-color="#245fd7"/>
      <stop offset="1" stop-color="#35c4e6"/>
    </linearGradient>
    <linearGradient id="river" x1="0" x2="1">
      <stop stop-color="#7ef0ff"/>
      <stop offset="1" stop-color="#fff5a8"/>
    </linearGradient>
    <filter id="shadow" x="-20%" y="-20%" width="140%" height="150%">
      <feDropShadow dx="0" dy="10" stdDeviation="10" flood-color="#041849" flood-opacity=".32"/>
    </filter>
  </defs>
  <rect width="720" height="240" rx="34" fill="url(#bg)"/>
  <path d="M0 160c120-46 212-42 308-8 126 46 236 20 412-80v168H0z" fill="#06194b" opacity=".26"/>
  <path d="M-24 186c132-54 234-52 332 2 118 66 236 50 440-50" fill="none" stroke="url(#river)" stroke-width="18" stroke-linecap="round" opacity=".88"/>
  <g filter="url(#shadow)">
    <path d="M482 72c48-48 124-46 168 0 40 42 28 104-28 128-60 26-150 6-178-42-18-30-4-62 38-86z" fill="#19366f"/>
    <path d="M506 88c28-30 74-34 106-8l-28 36-22-18-32 42-34-10z" fill="#dfeaff"/>
    <circle cx="628" cy="112" r="22" fill="#ffd44f"/>
  </g>
  <g filter="url(#shadow)">
    <path d="M84 118h96c28 0 50 22 50 50v18H44v-28c0-22 18-40 40-40z" fill="#fff3bf"/>
    <rect x="66" y="136" width="86" height="24" rx="12" fill="#b88443"/>
    <circle cx="184" cy="150" r="16" fill="#1b4b78"/>
  </g>
</svg>
