<svg xmlns="http://www.w3.org/2000/svg" viewBox="0 0 720 240" role="img" aria-label="Logic Lab Battle reward card">
  <defs>
    <linearGradient id="bg" x1="0" x2="1" y1="0" y2="1">
      <stop stop-color="#10225f"/>
      <stop offset=".5" stop-color="#624ee8"/>
      <stop offset="1" stop-color="#32d4c5"/>
    </linearGradient>
    <filter id="shadow" x="-20%" y="-20%" width="140%" height="150%">
      <feDropShadow dx="0" dy="12" stdDeviation="12" flood-color="#061240" flood-opacity=".3"/>
    </filter>
  </defs>
  <rect width="720" height="240" rx="34" fill="url(#bg)"/>
  <path d="M0 52h720M0 118h720M0 184h720M120 0v240M248 0v240M376 0v240M504 0v240M632 0v240" stroke="#fff" stroke-opacity=".12" stroke-width="3"/>
  <g filter="url(#shadow)">
    <rect x="92" y="74" width="110" height="110" rx="28" fill="#27d3a2"/>
    <rect x="240" y="54" width="138" height="138" rx="32" fill="#ffe05e"/>
    <rect x="418" y="78" width="118" height="118" rx="30" fill="#6ddcff"/>
    <path d="M132 130h34M149 113v34M278 112h62M278 144h62" stroke="#10225f" stroke-width="13" stroke-linecap="round"/>
    <circle cx="478" cy="137" r="28" fill="#10225f" opacity=".86"/>
    <path d="M458 137h40" stroke="#fff" stroke-width="10" stroke-linecap="round"/>
  </g>
  <path d="M594 54l18 38 42 6-30 30 8 42-38-20-38 20 8-42-30-30 42-6z" fill="#ffd44f" opacity=".92"/>
</svg>
