<svg xmlns="http://www.w3.org/2000/svg" viewBox="0 0 720 240" role="img" aria-label="Street Smart Rescue reward card">
  <defs>
    <linearGradient id="sky" x1="0" x2="1" y1="0" y2="1">
      <stop stop-color="#ff7fb2"/>
      <stop offset=".45" stop-color="#8cc9ff"/>
      <stop offset="1" stop-color="#4ed0b0"/>
    </linearGradient>
    <filter id="shadow" x="-20%" y="-20%" width="140%" height="150%">
      <feDropShadow dx="0" dy="10" stdDeviation="10" flood-color="#44225c" flood-opacity=".24"/>
    </filter>
  </defs>
  <rect width="720" height="240" rx="34" fill="url(#sky)"/>
  <path d="M0 170h720v70H0z" fill="#3d4d6f" opacity=".55"/>
  <path d="M-20 202h760" stroke="#fff7bc" stroke-width="8" stroke-linecap="round" stroke-dasharray="46 32" opacity=".9"/>
  <g opacity=".82">
    <rect x="420" y="56" width="78" height="102" rx="10" fill="#fff6d6"/>
    <rect x="516" y="78" width="96" height="80" rx="10" fill="#e4f4ff"/>
    <rect x="444" y="86" width="24" height="22" rx="5" fill="#4ea4e8"/>
    <rect x="540" y="104" width="30" height="24" rx="6" fill="#35bd79"/>
  </g>
  <g filter="url(#shadow)">
    <rect x="90" y="112" width="170" height="70" rx="34" fill="#182a6b"/>
    <rect x="122" y="84" width="96" height="64" rx="28" fill="#fff4c7"/>
    <circle cx="142" cy="151" r="24" fill="#202c52"/>
    <circle cx="222" cy="151" r="24" fill="#202c52"/>
    <path d="M126 122h98" stroke="#5ae0ff" stroke-width="10" stroke-linecap="round"/>
  </g>
  <circle cx="644" cy="52" r="30" fill="#ffd44f" opacity=".88"/>
</svg>
