<svg xmlns="http://www.w3.org/2000/svg" viewBox="0 0 220 160" role="img" aria-labelledby="title desc">
  <title id="title">Kid quest badge</title>
  <desc id="desc">A child adventurer with a backpack, book, and golden learning star.</desc>
  <defs>
    <linearGradient id="bg" x1="18" x2="202" y1="18" y2="144" gradientUnits="userSpaceOnUse">
      <stop stop-color="#E6F9FF"/>
      <stop offset="1" stop-color="#FFF2B9"/>
    </linearGradient>
    <linearGradient id="shirt" x1="68" x2="154" y1="86" y2="149" gradientUnits="userSpaceOnUse">
      <stop stop-color="#29C671"/>
      <stop offset="1" stop-color="#1C7EFF"/>
    </linearGradient>
  </defs>
  <rect x="5" y="6" width="210" height="148" rx="34" fill="url(#bg)"/>
  <path d="M27 129c28-25 54-36 78-34 24 2 40 17 64 11 9-2 17-6 25-12v46H27z" fill="#9AE865"/>
  <path d="M42 116c28-19 52-27 72-24 18 2 31 13 48 11" fill="none" stroke="#fff" stroke-width="8" stroke-linecap="round" stroke-dasharray="1 17"/>
  <circle cx="104" cy="62" r="33" fill="#AF6B3D"/>
  <path d="M73 62c2-26 16-42 39-42 21 0 34 14 37 39-18-10-37-13-76 3z" fill="#2B2455"/>
  <circle cx="92" cy="64" r="7" fill="#11194F"/>
  <circle cx="119" cy="64" r="7" fill="#11194F"/>
  <path d="M92 83c9 8 20 8 29 0" fill="none" stroke="#11194F" stroke-width="6" stroke-linecap="round"/>
  <path d="M63 147c5-34 20-54 42-54 23 0 39 20 47 54z" fill="url(#shirt)"/>
  <rect x="144" y="45" width="43" height="34" rx="9" fill="#fff" opacity=".95"/>
  <path d="M156 58h19M156 69h14" stroke="#1C7EFF" stroke-width="5" stroke-linecap="round"/>
  <path d="M171 25l7 19 20 1-16 12 6 19-17-12-17 12 6-19-16-12 20-1z" fill="#FFD23C"/>
</svg>
