<svg xmlns="http://www.w3.org/2000/svg" viewBox="0 0 220 160" role="img" aria-labelledby="title desc">
  <title id="title">Parent progress cockpit badge</title>
  <desc id="desc">A parent dashboard with progress charts, notes, and coaching signals.</desc>
  <defs>
    <linearGradient id="bg" x1="16" x2="205" y1="12" y2="150" gradientUnits="userSpaceOnUse">
      <stop stop-color="#EAF8FF"/>
      <stop offset=".5" stop-color="#EEF0FF"/>
      <stop offset="1" stop-color="#FFF1F7"/>
    </linearGradient>
    <linearGradient id="panel" x1="34" x2="187" y1="36" y2="132" gradientUnits="userSpaceOnUse">
      <stop stop-color="#17217C"/>
      <stop offset="1" stop-color="#1D8DFF"/>
    </linearGradient>
  </defs>
  <rect x="5" y="6" width="210" height="148" rx="34" fill="url(#bg)"/>
  <rect x="32" y="34" width="156" height="96" rx="22" fill="url(#panel)"/>
  <rect x="48" y="51" width="55" height="60" rx="14" fill="#fff" opacity=".95"/>
  <path d="M62 93a20 20 0 1 1 28-3" fill="none" stroke="#20C974" stroke-width="12" stroke-linecap="round"/>
  <circle cx="76" cy="73" r="15" fill="#EAF8FF"/>
  <rect x="116" y="52" width="54" height="12" rx="6" fill="#FFD23C"/>
  <rect x="116" y="74" width="40" height="12" rx="6" fill="#65E2FF"/>
  <rect x="116" y="96" width="50" height="12" rx="6" fill="#FF7EB1"/>
  <path d="M41 138c19-14 42-20 69-18 32 3 54 13 82 2" fill="none" stroke="#fff" stroke-width="8" stroke-linecap="round" opacity=".9"/>
  <path d="M170 25l7 18 19 2-15 11 5 19-16-11-16 11 5-19-15-11 19-2z" fill="#FFD23C"/>
</svg>
