<svg xmlns="http://www.w3.org/2000/svg" viewBox="0 0 720 420" role="img" aria-labelledby="title desc">
  <title id="title">Bright Quest test workbench</title>
  <desc id="desc">A polished practice desk with a notebook, timer, pencil, answer cards, and progress path.</desc>
  <defs>
    <linearGradient id="desk" x1="0" x2="720" y1="0" y2="420" gradientUnits="userSpaceOnUse">
      <stop stop-color="#F4FBFF"/>
      <stop offset=".48" stop-color="#EAF2FF"/>
      <stop offset="1" stop-color="#FFF5D7"/>
    </linearGradient>
    <linearGradient id="blue" x1="77" x2="533" y1="70" y2="336" gradientUnits="userSpaceOnUse">
      <stop stop-color="#17217C"/>
      <stop offset=".52" stop-color="#176BFF"/>
      <stop offset="1" stop-color="#22C7D9"/>
    </linearGradient>
    <linearGradient id="gold" x1="0" x2="1" y1="0" y2="1">
      <stop stop-color="#FFF47B"/>
      <stop offset="1" stop-color="#FF9D22"/>
    </linearGradient>
    <filter id="shadow" x="-20%" y="-20%" width="140%" height="150%">
      <feDropShadow dx="0" dy="18" stdDeviation="13" flood-color="#09205C" flood-opacity=".20"/>
    </filter>
  </defs>
  <rect width="720" height="420" rx="36" fill="url(#desk)"/>
  <path d="M0 302c96-41 184-55 265-43 94 15 146 58 239 47 75-9 129-45 216-42v156H0z" fill="#DDF8FF"/>
  <path d="M64 320c86-34 163-44 231-30 76 16 125 49 199 39 56-7 101-30 160-27" fill="none" stroke="#FFFFFF" stroke-width="9" stroke-linecap="round" stroke-dasharray="1 24" opacity=".95"/>
  <g filter="url(#shadow)">
    <rect x="72" y="76" width="282" height="210" rx="28" fill="#FFFFFF"/>
    <path d="M111 124h192M111 166h156M111 208h188" stroke="#D8E7FF" stroke-width="14" stroke-linecap="round"/>
    <path d="M110 251l44-43 38 28 70-78" fill="none" stroke="#21C46B" stroke-width="17" stroke-linecap="round" stroke-linejoin="round"/>
    <rect x="80" y="76" width="38" height="210" rx="18" fill="#176BFF" opacity=".16"/>
  </g>
  <g filter="url(#shadow)">
    <circle cx="486" cy="126" r="58" fill="#FFFFFF"/>
    <circle cx="486" cy="126" r="42" fill="#EAF8FF"/>
    <path d="M486 91v37l25 19" fill="none" stroke="#17217C" stroke-width="10" stroke-linecap="round" stroke-linejoin="round"/>
    <path d="M449 80l-19-16M523 80l19-16" stroke="#FFD23C" stroke-width="12" stroke-linecap="round"/>
  </g>
  <g filter="url(#shadow)">
    <rect x="437" y="219" width="86" height="72" rx="20" fill="#FFFFFF"/>
    <rect x="545" y="199" width="86" height="72" rx="20" fill="#FFFFFF"/>
    <rect x="489" y="304" width="86" height="72" rx="20" fill="#FFFFFF"/>
    <path d="M463 254h34M570 234h34M514 339h34" stroke="url(#blue)" stroke-width="12" stroke-linecap="round"/>
    <circle cx="492" cy="236" r="10" fill="#FFD23C"/>
    <circle cx="598" cy="217" r="10" fill="#F25596"/>
    <circle cx="542" cy="322" r="10" fill="#21C46B"/>
  </g>
  <g filter="url(#shadow)">
    <path d="M607 98l22 22-138 138-39 17 17-39z" fill="url(#gold)"/>
    <path d="M607 98l22 22-24 24-22-22z" fill="#17217C"/>
    <path d="M452 275l17-39 22 22z" fill="#FFFFFF"/>
  </g>
  <path d="M374 57l12 33 35 1-28 20 10 34-29-20-29 20 10-34-28-20 35-1z" fill="url(#gold)" opacity=".96"/>
</svg>
