<svg xmlns="http://www.w3.org/2000/svg" viewBox="0 0 520 220" role="img" aria-label="World challenge arena">
  <defs>
    <linearGradient id="bg" x1="0" x2="1" y1="0" y2="1">
      <stop stop-color="#0b1b57"/>
      <stop offset=".62" stop-color="#176dca"/>
      <stop offset="1" stop-color="#27c4e8"/>
    </linearGradient>
    <filter id="shadow" x="-20%" y="-20%" width="140%" height="150%">
      <feDropShadow dx="0" dy="12" stdDeviation="10" flood-color="#071238" flood-opacity=".28"/>
    </filter>
  </defs>
  <rect width="520" height="220" rx="28" fill="url(#bg)"/>
  <path d="M0 166c80-36 164-42 252 0s176 42 268-18v72H0z" fill="#1fbf79" opacity=".22"/>
  <g filter="url(#shadow)">
    <circle cx="362" cy="106" r="62" fill="#26b8e8"/>
    <path d="M318 82c28 12 64 6 90 24-20 8-24 32-52 28-18-2-28-18-48-8-8-18-4-32 10-44z" fill="#42d477"/>
    <path d="M372 52c24 10 42 32 48 58-26-4-36-16-38-34-6-8-10-14-10-24z" fill="#42d477"/>
    <path d="M304 106h116M362 44c-22 40-22 84 0 124M362 44c22 40 22 84 0 124" fill="none" stroke="#fff" stroke-opacity=".68" stroke-width="6"/>
  </g>
  <g fill="#fff" opacity=".72">
    <rect x="74" y="58" width="142" height="20" rx="10"/>
    <rect x="74" y="96" width="106" height="14" rx="7"/>
    <rect x="74" y="126" width="130" height="14" rx="7"/>
  </g>
  <path d="M242 54l16 42 44 2-34 26 12 44-38-25-38 25 12-44-34-26 44-2z" fill="#ffd85a"/>
</svg>
