<svg xmlns="http://www.w3.org/2000/svg" viewBox="0 0 320 220" role="img" aria-label="World challenge globe">
  <defs><linearGradient id="bg" x1="0" x2="1" y1="0" y2="1"><stop stop-color="#d8f7ff"/><stop offset="1" stop-color="#dcd8ff"/></linearGradient><filter id="shadow" x="-20%" y="-20%" width="140%" height="150%"><feDropShadow dx="0" dy="12" stdDeviation="10" flood-color="#10205f" flood-opacity=".22"/></filter></defs>
  <rect width="320" height="220" rx="28" fill="url(#bg)"/>
  <g filter="url(#shadow)">
    <circle cx="160" cy="104" r="70" fill="#2bb7df"/>
    <path d="M112 72c30 16 66 8 94 28-26 10-24 38-54 36-22-2-28-18-50-10-10-20-6-38 10-54z" fill="#27c878"/>
    <path d="M174 54c24 14 42 34 48 58-24-4-34-16-36-34-6-6-12-14-12-24z" fill="#27c878"/>
    <path d="M92 104h136M160 34c-24 44-24 96 0 140M160 34c24 44 24 96 0 140" fill="none" stroke="#fff" stroke-opacity=".65" stroke-width="6"/>
    <path d="M110 174h100" stroke="#10205f" stroke-opacity=".18" stroke-width="14" stroke-linecap="round"/>
  </g>
</svg>
